<svg width="24" height="24" viewBox="0 0 24 24" fill="none" xmlns="http://www.w3.org/2000/svg">
<g clip-path="url(#clip0_4137_9131)">
<path fill-rule="evenodd" clip-rule="evenodd" d="M2.82821 0.766232C3.09067 0.504165 3.40583 0.300869 3.7528 0.169817C4.09978 0.0387646 4.47064 -0.0170519 4.84082 0.00606638C5.21099 0.0291847 5.57203 0.13071 5.9 0.303914C6.22797 0.477118 6.51539 0.718046 6.74321 1.01073L9.43571 4.46973C9.92921 5.10423 10.1032 5.93073 9.90821 6.71073L9.08771 9.99573C9.04528 10.1659 9.04758 10.3441 9.09436 10.5131C9.14114 10.6821 9.23083 10.8361 9.35471 10.9602L13.0402 14.6457C13.1645 14.7699 13.3187 14.8597 13.488 14.9065C13.6573 14.9533 13.8358 14.9554 14.0062 14.9127L17.2897 14.0922C17.6746 13.996 18.0764 13.9885 18.4646 14.0704C18.8529 14.1522 19.2174 14.3213 19.5307 14.5647L22.9897 17.2557C24.2332 18.2232 24.3472 20.0607 23.2342 21.1722L21.6832 22.7232C20.5732 23.8332 18.9142 24.3207 17.3677 23.7762C13.4095 22.3835 9.81562 20.1175 6.85271 17.1462C3.88164 14.1838 1.61562 10.5904 0.222706 6.63273C-0.320294 5.08773 0.167206 3.42723 1.27721 2.31723L2.82821 0.766232Z" fill="#00296B"/>
</g>
<defs>
<clipPath id="clip0_4137_9131">
<rect width="24" height="24" fill="white"/>
</clipPath>
</defs>
</svg>
