<svg width="70" height="20" viewBox="0 0 70 20" fill="none" xmlns="http://www.w3.org/2000/svg">
<g clip-path="url(#clip0_4507_19551)">
<path d="M1.04953 9.9873L0.0513568 12.291C0.00329371 12.4062 -0.00528923 12.534 0.0271406 12.6544C0.0595704 12.7749 0.131196 12.8812 0.230556 12.9566C0.339366 12.9872 0.454368 12.9872 0.563177 12.9566C0.717354 12.9504 0.863649 12.8864 0.972821 12.7774L3.53255 10.2177L1.04953 9.9873Z" fill="#004D4A"/>
<path d="M1.04953 9.98684L0.0513568 7.70869C0.00329371 7.59358 -0.00528923 7.46578 0.0271406 7.34533C0.0595704 7.22488 0.131196 7.11859 0.230556 7.04317C0.326388 6.96856 0.442043 6.92401 0.563177 6.91518C0.714354 6.91188 0.861091 6.96687 0.972821 7.06876L3.53255 9.62848L1.04953 9.98684Z" fill="#004D4A"/>
<path d="M5.47964 10.8833L3.30378 16.6939C3.27426 16.7683 3.26358 16.8489 3.27269 16.9285C3.2818 17.008 3.31053 17.0841 3.35612 17.15C3.4017 17.2158 3.4628 17.2694 3.53407 17.3059C3.60533 17.3424 3.68444 17.3608 3.76451 17.3594H4.17416C4.29337 17.3594 4.41093 17.3316 4.51756 17.2783C4.62419 17.225 4.71694 17.1476 4.78846 17.0522L9.90792 10.7041L5.47964 10.8833Z" fill="#004D4A"/>
<path d="M5.47836 9.11626L3.3025 3.28008C3.27141 3.20714 3.25969 3.1274 3.26844 3.04859C3.27719 2.96977 3.30616 2.89456 3.35249 2.83021C3.39883 2.76586 3.46098 2.71454 3.53294 2.68124C3.60491 2.64795 3.68419 2.6338 3.76323 2.64015H4.17288C4.29209 2.64015 4.40965 2.66788 4.51628 2.7212C4.62291 2.77451 4.71566 2.85193 4.78719 2.94731L9.90664 9.29542L5.47836 9.11626Z" fill="#004D4A"/>
<path d="M13.8988 9.21868L14.7435 9.60267C14.8199 9.63709 14.8847 9.69281 14.9302 9.7632C14.9757 9.83358 14.9999 9.91562 14.9999 9.99942C14.9999 10.0832 14.9757 10.1652 14.9302 10.2356C14.8847 10.306 14.8199 10.3618 14.7435 10.3962L13.8988 10.7801C13.5633 10.9427 13.1965 11.0301 12.8237 11.0361H1.02344V8.98832H12.8237C13.1946 8.98633 13.5613 9.06493 13.8988 9.21868Z" fill="#004D4A"/>
</g>
<path d="M16 10H31" stroke="#004D4A" stroke-width="0.6" stroke-linecap="round" stroke-linejoin="round" stroke-dasharray="1.9 1.9"/>
<path d="M41.9999 9.96268C41.9925 8.9754 41.6931 8.01242 41.1392 7.1951C40.5853 6.37778 39.8018 5.7427 38.8875 5.36997C37.9732 4.99725 36.9692 4.90355 36.0017 5.10067C35.0343 5.29779 34.1468 5.77693 33.4512 6.47766C32.7557 7.17838 32.2833 8.06935 32.0934 9.03822C31.9035 10.0071 32.0045 11.0105 32.384 11.9219C32.7635 12.8334 33.4044 13.6121 34.2258 14.1599C35.0472 14.7076 36.0124 15 36.9997 15C37.6595 15 38.3128 14.8695 38.9219 14.6159C39.531 14.3623 40.0839 13.9906 40.5487 13.5224C41.0135 13.0541 41.3809 12.4985 41.63 11.8876C41.8791 11.2766 42.0048 10.6224 41.9999 9.96268Z" fill="#004D4A"/>
<path d="M43 10H58" stroke="#004D4A" stroke-width="0.6" stroke-linecap="round" stroke-linejoin="round" stroke-dasharray="1.9 1.9"/>
<g clip-path="url(#clip1_4507_19551)">
<path d="M64.2817 2.5C62.8809 2.5 61.5376 3.05646 60.547 4.04697C59.5565 5.03748 59 6.3809 59 7.78169C59 10.6602 64.2817 17.5 64.2817 17.5C64.2817 17.5 69.5634 10.6602 69.5634 7.78169C69.5634 6.3809 69.0068 5.03748 68.0163 4.04697C67.0258 3.05646 65.6825 2.5 64.2817 2.5ZM64.2817 10.4225C63.7594 10.4225 63.2489 10.2676 62.8146 9.97747C62.3803 9.68729 62.0417 9.27487 61.8418 8.79232C61.642 8.30977 61.5897 7.77878 61.6916 7.2665C61.7935 6.75423 62.045 6.28366 62.4144 5.91433C62.7837 5.545 63.2543 5.29348 63.7665 5.19158C64.2788 5.08968 64.8098 5.142 65.2923 5.34188C65.7749 5.54176 66.1873 5.88022 66.4775 6.31451C66.7677 6.74879 66.9225 7.25938 66.9225 7.78169C66.8952 8.46362 66.6051 9.10852 66.1127 9.58115C65.6204 10.0538 64.9642 10.3175 64.2817 10.3169V10.4225Z" fill="#004D4A"/>
</g>
<defs>
<clipPath id="clip0_4507_19551">
<rect width="15" height="14.7184" fill="white" transform="translate(0 2.64062)"/>
</clipPath>
<clipPath id="clip1_4507_19551">
<rect width="10.5634" height="20" fill="white" transform="translate(59)"/>
</clipPath>
</defs>
</svg>
