<svg width="320" height="624" viewBox="0 0 320 624" fill="none" xmlns="http://www.w3.org/2000/svg">
<path d="M0 624H320C320 624 319.834 601.059 320 566.462C319.022 470.468 316.987 284.741 315.547 250.336C314.938 236.016 312.679 207.17 305.787 174.219C288.422 109.42 237.561 27.0068 181.062 4.48395C173.041 1.28632 166.241 0.0861814 158.537 0C150.822 0.0715398 143.95 1.58293 136.987 4.48395C82.9268 27.0068 31.5782 109.42 14.2128 174.219C7.32099 207.17 5.06178 236.015 4.45283 250.336C3.01345 284.741 0.977651 470.468 0 566.462C0.165638 601.059 0 624 0 624Z" fill="#F9F9F9"/>
</svg>
