<svg width="52" height="49" viewBox="0 0 52 49" fill="none" xmlns="http://www.w3.org/2000/svg">
<path d="M8.7035 35.4055C9.04084 35.7441 9.29933 36.153 9.46056 36.603C9.62179 37.0529 9.68177 37.5329 9.63625 38.0088C9.40784 40.2109 8.9748 42.3869 8.34275 44.5088C12.8765 43.459 15.6455 42.2435 16.9033 41.6065C17.6166 41.2452 18.4382 41.1596 19.2107 41.366C21.4254 41.9564 23.708 42.2536 26 42.25C38.987 42.25 48.75 33.1273 48.75 22.75C48.75 12.376 38.987 3.25 26 3.25C13.013 3.25 3.25 12.376 3.25 22.75C3.25 27.521 5.25525 31.9475 8.7035 35.4055ZM7.10125 48.0968C6.33122 48.2494 5.5587 48.3892 4.784 48.516C4.134 48.62 3.64 47.944 3.89675 47.3395C4.18532 46.659 4.44982 45.9684 4.68975 45.2693L4.6995 45.2368C5.5055 42.8968 6.162 40.2058 6.4025 37.7C2.41475 33.7025 0 28.47 0 22.75C0 10.1855 11.6415 0 26 0C40.3585 0 52 10.1855 52 22.75C52 35.3145 40.3585 45.5 26 45.5C23.4249 45.5035 20.8604 45.1691 18.3722 44.5055C16.6822 45.3603 13.0455 46.917 7.10125 48.0968Z" fill="#00296B"/>
<path d="M9.8 28.75V28.486L15.48 19.038H10.2V17.23H18.816V17.502L13.168 26.934H18.68V28.75H9.8ZM23.1454 28.99C22.5214 28.99 21.9934 28.8727 21.5614 28.638C21.1294 28.398 20.8014 28.0807 20.5774 27.686C20.3587 27.2913 20.2494 26.8567 20.2494 26.382C20.2494 25.966 20.3187 25.5927 20.4574 25.262C20.596 24.926 20.8094 24.638 21.0974 24.398C21.3854 24.1527 21.7587 23.9527 22.2174 23.798C22.564 23.686 22.9694 23.5847 23.4334 23.494C23.9027 23.4033 24.4094 23.3207 24.9534 23.246C25.5027 23.166 26.076 23.0807 26.6734 22.99L25.9854 23.382C25.9907 22.7847 25.8574 22.3447 25.5854 22.062C25.3134 21.7793 24.8547 21.638 24.2094 21.638C23.82 21.638 23.444 21.7287 23.0814 21.91C22.7187 22.0913 22.4654 22.4033 22.3214 22.846L20.5614 22.294C20.7747 21.5633 21.18 20.9767 21.7774 20.534C22.38 20.0913 23.1907 19.87 24.2094 19.87C24.9774 19.87 25.652 19.9953 26.2334 20.246C26.82 20.4967 27.2547 20.9073 27.5374 21.478C27.692 21.782 27.7854 22.094 27.8174 22.414C27.8494 22.7287 27.8654 23.0727 27.8654 23.446V28.75H26.1774V26.878L26.4574 27.182C26.068 27.806 25.612 28.2647 25.0894 28.558C24.572 28.846 23.924 28.99 23.1454 28.99ZM23.5294 27.454C23.9667 27.454 24.34 27.3767 24.6494 27.222C24.9587 27.0673 25.204 26.878 25.3854 26.654C25.572 26.43 25.6974 26.2193 25.7614 26.022C25.8627 25.7767 25.9187 25.4967 25.9294 25.182C25.9454 24.862 25.9534 24.6033 25.9534 24.406L26.5454 24.582C25.964 24.6727 25.4654 24.7527 25.0494 24.822C24.6334 24.8913 24.276 24.958 23.9774 25.022C23.6787 25.0807 23.4147 25.1473 23.1854 25.222C22.9614 25.302 22.772 25.3953 22.6174 25.502C22.4627 25.6087 22.3427 25.7313 22.2574 25.87C22.1774 26.0087 22.1374 26.1713 22.1374 26.358C22.1374 26.5713 22.1907 26.7607 22.2974 26.926C22.404 27.086 22.5587 27.214 22.7614 27.31C22.9694 27.406 23.2254 27.454 23.5294 27.454ZM30.1081 28.75V16.99H32.0361V28.75H30.1081ZM38.2485 28.99C37.3845 28.99 36.6298 28.7953 35.9845 28.406C35.3392 28.0167 34.8378 27.4807 34.4805 26.798C34.1285 26.11 33.9525 25.3207 33.9525 24.43C33.9525 23.5233 34.1338 22.7287 34.4965 22.046C34.8592 21.3633 35.3632 20.83 36.0085 20.446C36.6538 20.062 37.4005 19.87 38.2485 19.87C39.1178 19.87 39.8752 20.0647 40.5205 20.454C41.1658 20.8433 41.6672 21.382 42.0245 22.07C42.3818 22.7527 42.5605 23.5393 42.5605 24.43C42.5605 25.326 42.3792 26.118 42.0165 26.806C41.6592 27.4887 41.1578 28.0247 40.5125 28.414C39.8672 28.798 39.1125 28.99 38.2485 28.99ZM38.2485 27.182C39.0165 27.182 39.5872 26.926 39.9605 26.414C40.3338 25.902 40.5205 25.2407 40.5205 24.43C40.5205 23.5927 40.3312 22.926 39.9525 22.43C39.5738 21.9287 39.0058 21.678 38.2485 21.678C37.7312 21.678 37.3045 21.7953 36.9685 22.03C36.6378 22.2593 36.3925 22.582 36.2325 22.998C36.0725 23.4087 35.9925 23.886 35.9925 24.43C35.9925 25.2673 36.1818 25.9367 36.5605 26.438C36.9445 26.934 37.5072 27.182 38.2485 27.182Z" fill="#00296B"/>
</svg>
