<svg width="13" height="13" viewBox="0 0 13 13" fill="none" xmlns="http://www.w3.org/2000/svg">
<path d="M5.36177 1.18719C5.66367 0.271233 6.95936 0.271233 7.26125 1.18719L7.95482 3.29148C8.08995 3.70145 8.47287 3.97844 8.90453 3.97845L11.1182 3.97853C12.0904 3.97857 12.4908 5.22534 11.7006 5.79146L9.93417 7.05688C9.57874 7.31151 9.42994 7.76751 9.56677 8.18277L10.2471 10.2476C10.5499 11.1664 9.50154 11.9368 8.71508 11.3735L6.89382 10.069C6.54566 9.81963 6.07736 9.81963 5.72921 10.069L3.90794 11.3735C3.12148 11.9368 2.07312 11.1664 2.37587 10.2476L3.05625 8.18277C3.19309 7.76751 3.04428 7.31151 2.68885 7.05688L0.922446 5.79146C0.13219 5.22534 0.532662 3.97857 1.50477 3.97853L3.7185 3.97845C4.15015 3.97844 4.53308 3.70145 4.6682 3.29148L5.36177 1.18719Z" stroke="#EBA00A"/>
</svg>
