<svg width="17" height="17" viewBox="0 0 17 17" fill="none" xmlns="http://www.w3.org/2000/svg"> <g clip-path="url(#clip0_4137_8851)"> <path d="M7.37739 2.88153C7.67929 1.96557 8.97498 1.96557 9.27688 2.88153L9.97045 4.98582C10.1056 5.39578 10.4885 5.67277 10.9202 5.67279L13.1339 5.67287C14.106 5.67291 14.5065 6.91967 13.7162 7.4858L11.9498 8.75122C11.5944 9.00584 11.4456 9.46185 11.5824 9.87711L12.2628 11.9419C12.5655 12.8607 11.5172 13.6312 10.7307 13.0678L8.90944 11.7633C8.56129 11.514 8.09299 11.514 7.74483 11.7633L5.92357 13.0678C5.13711 13.6312 4.08874 12.8607 4.3915 11.9419L5.07188 9.87711C5.20871 9.46185 5.05991 9.00584 4.70448 8.75122L2.93807 7.4858C2.14781 6.91967 2.54829 5.67291 3.5204 5.67287L5.73412 5.67279C6.16578 5.67277 6.5487 5.39578 6.68383 4.98582L7.37739 2.88153Z" fill="#EBA00A" stroke="#EBA00A"/> </g> <defs> <clipPath id="clip0_4137_8851"> <rect width="16.6543" height="16.42" fill="white"/> </clipPath> </defs> </svg>