<svg width="24" height="24" viewBox="0 0 24 24" fill="none" xmlns="http://www.w3.org/2000/svg">
<path d="M6.5 15.5714C6.5 15.9286 6.6375 16.2857 6.9125 16.5714C7.1875 16.8571 7.53125 17 7.875 17V9.14286C7.53125 9.14286 7.1875 9.28571 6.9125 9.57143C6.6375 9.85714 6.5 10.2143 6.5 10.5714V15.5714ZM13.0312 9.14286H10.9687C10.9687 8.85714 11.0375 8.57143 11.2437 8.35714C11.45 8.14286 11.6562 8.07143 12 8.07143C12.275 8.07143 12.55 8.14286 12.7563 8.35714C12.8938 8.57143 13.0312 8.85714 13.0312 9.14286ZM8.5625 9.14286V17H15.4375V9.14286H14.0625C14.0625 8.57143 13.8563 8.07143 13.4438 7.64286C13.0312 7.21429 12.55 7 12 7C11.45 7 10.9688 7.21429 10.5562 7.64286C10.1437 8.07143 9.9375 8.57143 9.9375 9.14286H8.5625ZM16.125 17C16.4687 17 16.8125 16.8571 17.0875 16.5714C17.3625 16.2857 17.5 15.9286 17.5 15.5714V10.5714C17.5 10.2143 17.3625 9.85714 17.0875 9.57143C16.8125 9.28571 16.4687 9.14286 16.125 9.14286V17Z" fill="#0E0F52"/>
</svg>
