<svg width="616" height="146" viewBox="0 0 616 146" fill="none" xmlns="http://www.w3.org/2000/svg">
<path d="M68.93 47.64C31.81 7.04 20.16 7.41 0 0C38.73 17.52 61.35 52.77 72.63 109.33C75.77 97.23 85.44 46.36 120.42 25.23C120.42 25.23 84.92 17.82 68.93 47.64Z" fill="#FF3C13"/>
<mask id="mask0_4137_13886" style="mask-type:luminance" maskUnits="userSpaceOnUse" x="0" y="0" width="73" height="146">
<path d="M0 0C44.78 26.92 61.46 84.94 53.17 145.73C63.32 136.1 68.52 123.32 72.66 109.33C62.53 37.03 25.03 9.46 0 0Z" fill="white"/>
</mask>
<g mask="url(#mask0_4137_13886)">
<path d="M23.0803 145.73L14.8203 97.8001L72.6703 87.8301V145.73H23.0803Z" fill="#DC9D1F"/>
<path d="M14.8192 97.7999L14.6992 97.1099L72.6692 87.1299V87.8299L14.8192 97.7999Z" fill="#DC9D1F"/>
<path d="M14.7001 97.1099L14.5801 96.4299L72.6701 86.4199V87.1299L14.7001 97.1099Z" fill="#DC9D1F"/>
<path d="M14.5809 96.43L14.4609 95.74L72.6709 85.71V86.42L14.5809 96.43Z" fill="#DC9D1F"/>
<path d="M14.4596 95.7398L14.3496 95.0498L72.6696 85.0098V85.7098L14.4596 95.7398Z" fill="#DC9D1F"/>
<path d="M14.3505 95.0498L14.2305 94.3698L72.6705 84.2998V85.0098L14.3505 95.0498Z" fill="#DC9D1F"/>
<path d="M14.2294 94.3704L14.1094 93.6804L72.5794 83.6104L72.6694 84.0903V84.3004L14.2294 94.3704Z" fill="#DC9D1F"/>
<path d="M72.4657 82.9333L13.9863 93.0029L14.1051 93.6928L72.5845 83.6232L72.4657 82.9333Z" fill="#DC9D1F"/>
<path d="M72.3505 82.2429L13.8711 92.3125L13.9899 93.0024L72.4693 82.9327L72.3505 82.2429Z" fill="#DC9D1F"/>
<path d="M72.2255 81.5534L13.7461 91.623L13.8649 92.3129L72.3443 82.2433L72.2255 81.5534Z" fill="#DC9D1F"/>
<path d="M72.1122 80.8737L13.6328 90.9434L13.7516 91.6332L72.231 81.5636L72.1122 80.8737Z" fill="#DC9D1F"/>
<path d="M71.9872 80.1843L13.5078 90.2539L13.6266 90.9438L72.106 80.8741L71.9872 80.1843Z" fill="#DC9D1F"/>
<path d="M71.872 79.5046L13.3926 89.5742L13.5114 90.2641L71.9908 80.1944L71.872 79.5046Z" fill="#DC9D1F"/>
<path d="M71.7567 78.8132L13.2773 88.8828L13.3961 89.5727L71.8755 79.5031L71.7567 78.8132Z" fill="#DC9D1F"/>
<path d="M71.6317 78.1237L13.1523 88.1934L13.2711 88.8832L71.7505 78.8136L71.6317 78.1237Z" fill="#DC9D1F"/>
<path d="M71.5184 77.4441L13.0391 87.5137L13.1578 88.2035L71.6372 78.1339L71.5184 77.4441Z" fill="#DC9D1F"/>
<path d="M71.3935 76.7546L12.9141 86.8242L13.0328 87.5141L71.5122 77.4444L71.3935 76.7546Z" fill="#DC9D1F"/>
<path d="M71.2782 76.0642L12.7988 86.1338L12.9176 86.8236L71.397 76.754L71.2782 76.0642Z" fill="#DC9D1F"/>
<path d="M71.1532 75.3845L12.6738 85.4541L12.7926 86.144L71.272 76.0743L71.1532 75.3845Z" fill="#DC9D1F"/>
<path d="M71.0477 74.6833L12.5684 84.7529L12.6871 85.4428L71.1665 75.3732L71.0477 74.6833Z" fill="#DC9D1F"/>
<path d="M70.9227 73.9939L12.4434 84.0635L12.5621 84.7533L71.0415 74.6837L70.9227 73.9939Z" fill="#DC9D1F"/>
<path d="M70.8095 73.3142L12.3301 83.3838L12.4489 84.0736L70.9282 74.004L70.8095 73.3142Z" fill="#DC9D1F"/>
<path d="M70.6845 72.6247L12.2051 82.6943L12.3239 83.3842L70.8033 73.3146L70.6845 72.6247Z" fill="#DC9D1F"/>
<path d="M70.5692 71.9343L12.0898 82.0039L12.2086 82.6938L70.688 72.6241L70.5692 71.9343Z" fill="#DC9D1F"/>
<path d="M70.4442 71.2546L11.9648 81.3242L12.0836 82.0141L70.563 71.9445L70.4442 71.2546Z" fill="#DC9D1F"/>
<path d="M70.3388 70.5632L11.8594 80.6328L11.9782 81.3227L70.4575 71.253L70.3388 70.5632Z" fill="#DC9D1F"/>
<path d="M70.2138 69.8737L11.7344 79.9434L11.8532 80.6332L70.3325 70.5636L70.2138 69.8737Z" fill="#DC9D1F"/>
<path d="M70.1005 69.1941L11.6211 79.2637L11.7399 79.9535L70.2193 69.8839L70.1005 69.1941Z" fill="#DC9D1F"/>
<path d="M69.9755 68.5046L11.4961 78.5742L11.6149 79.2641L70.0943 69.1945L69.9755 68.5046Z" fill="#DC9D1F"/>
<path d="M69.8602 67.8152L11.3809 77.8848L11.4996 78.5746L69.979 68.505L69.8602 67.8152Z" fill="#DC9D1F"/>
<path d="M69.747 67.1335L11.2676 77.2031L11.3864 77.893L69.8657 67.8234L69.747 67.1335Z" fill="#DC9D1F"/>
<path d="M69.6298 66.4441L11.1504 76.5137L11.2692 77.2035L69.7486 67.1339L69.6298 66.4441Z" fill="#DC9D1F"/>
<path d="M69.5048 65.7546L11.0254 75.8242L11.1442 76.5141L69.6236 66.4444L69.5048 65.7546Z" fill="#DC9D1F"/>
<path d="M69.3915 65.0749L10.9121 75.1445L11.0309 75.8344L69.5103 65.7648L69.3915 65.0749Z" fill="#DC9D1F"/>
<path d="M69.2665 64.3845L10.7871 74.4541L10.9059 75.1439L69.3853 65.0743L69.2665 64.3845Z" fill="#DC9D1F"/>
<path d="M69.1513 63.695L10.6719 73.7646L10.7907 74.4545L69.27 64.3849L69.1513 63.695Z" fill="#DC9D1F"/>
<path d="M69.038 63.0134L10.5586 73.083L10.6774 73.7729L69.1568 63.7032L69.038 63.0134Z" fill="#DC9D1F"/>
<path d="M68.9227 62.3239L10.4434 72.3936L10.5621 73.0834L69.0415 63.0138L68.9227 62.3239Z" fill="#DC9D1F"/>
<path d="M68.7977 61.6443L10.3184 71.7139L10.4371 72.4037L68.9165 62.3341L68.7977 61.6443Z" fill="#DC9D1F"/>
<path d="M68.6825 60.9548L10.2031 71.0244L10.3219 71.7143L68.8013 61.6446L68.6825 60.9548Z" fill="#DC9D1F"/>
<path d="M68.5575 60.2653L10.0781 70.335L10.1969 71.0248L68.6763 60.9552L68.5575 60.2653Z" fill="#DC9D1F"/>
<path d="M68.4442 59.5857L9.96484 69.6553L10.0836 70.3451L68.563 60.2755L68.4442 59.5857Z" fill="#DC9D1F"/>
<path d="M68.329 58.8943L9.84961 68.9639L9.96839 69.6537L68.4478 59.5841L68.329 58.8943Z" fill="#DC9D1F"/>
<path d="M68.2138 58.2048L9.73438 68.2744L9.85316 68.9643L68.3325 58.8946L68.2138 58.2048Z" fill="#DC9D1F"/>
<path d="M68.0888 57.5241L9.60938 67.5938L9.72816 68.2836L68.2075 58.214L68.0888 57.5241Z" fill="#DC9D1F"/>
<path d="M67.9638 56.8347L9.48438 66.9043L9.60316 67.5941L68.0825 57.5245L67.9638 56.8347Z" fill="#DC9D1F"/>
<path d="M67.8485 56.1452L9.36914 66.2148L9.48793 66.9047L67.9673 56.8351L67.8485 56.1452Z" fill="#DC9D1F"/>
<path d="M67.7255 55.4655L9.24609 65.5352L9.36488 66.225L67.8443 56.1554L67.7255 55.4655Z" fill="#DC9D1F"/>
<path d="M67.62 54.7741L9.14062 64.8438L9.25941 65.5336L67.7388 55.464L67.62 54.7741Z" fill="#DC9D1F"/>
<path d="M67.495 54.0847L9.01562 64.1543L9.13441 64.8441L67.6138 54.7745L67.495 54.0847Z" fill="#DC9D1F"/>
<path d="M67.3798 53.405L8.90039 63.4746L9.01918 64.1645L67.4986 54.0948L67.3798 53.405Z" fill="#DC9D1F"/>
<path d="M67.2548 52.7155L8.77539 62.7852L8.89418 63.475L67.3736 53.4054L67.2548 52.7155Z" fill="#DC9D1F"/>
<path d="M67.1395 52.0251L8.66016 62.0947L8.77894 62.7846L67.2583 52.715L67.1395 52.0251Z" fill="#DC9D1F"/>
<path d="M67.0165 51.3454L8.53711 61.415L8.65589 62.1049L67.1353 52.0353L67.0165 51.3454Z" fill="#DC9D1F"/>
<path d="M66.911 50.654L8.43164 60.7236L8.55043 61.4135L67.0298 51.3439L66.911 50.654Z" fill="#DC9D1F"/>
<path d="M66.786 49.9646L8.30664 60.0342L8.42543 60.724L66.9048 50.6544L66.786 49.9646Z" fill="#DC9D1F"/>
<path d="M66.6708 49.2849L8.19141 59.3545L8.31019 60.0443L66.7896 49.9747L66.6708 49.2849Z" fill="#DC9D1F"/>
<path d="M66.5458 48.5954L8.06641 58.665L8.18519 59.3549L66.6646 49.2853L66.5458 48.5954Z" fill="#DC9D1F"/>
<path d="M66.4306 47.906L7.95117 57.9756L8.06996 58.6654L66.5493 48.5958L66.4306 47.906Z" fill="#DC9D1F"/>
<path d="M66.3173 47.2243L7.83789 57.2939L7.95668 57.9838L66.4361 47.9142L66.3173 47.2243Z" fill="#DC9D1F"/>
<path d="M66.202 46.5349L7.72266 56.6045L7.84144 57.2943L66.3208 47.2247L66.202 46.5349Z" fill="#DC9D1F"/>
<path d="M66.079 45.8552L7.59961 55.9248L7.71839 56.6146L66.1978 46.545L66.079 45.8552Z" fill="#DC9D1F"/>
<path d="M65.9638 45.1657L7.48438 55.2354L7.60316 55.9252L66.0825 45.8556L65.9638 45.1657Z" fill="#DC9D1F"/>
<path d="M65.8368 44.4753L7.35742 54.5449L7.47621 55.2348L65.9556 45.1652L65.8368 44.4753Z" fill="#DC9D1F"/>
<path d="M65.7235 43.7956L7.24414 53.8652L7.36293 54.5551L65.8423 44.4855L65.7235 43.7956Z" fill="#DC9D1F"/>
<path d="M65.6083 43.1042L7.12891 53.1738L7.24769 53.8637L65.7271 43.7941L65.6083 43.1042Z" fill="#DC9D1F"/>
<path d="M65.4931 42.4148L7.01367 52.4844L7.13246 53.1742L65.6118 43.1046L65.4931 42.4148Z" fill="#DC9D1F"/>
<path d="M65.37 41.7351L6.89062 51.8047L7.00941 52.4945L65.4888 42.4249L65.37 41.7351Z" fill="#DC9D1F"/>
<path d="M65.2548 41.0456L6.77539 51.1152L6.89418 51.8051L65.3736 41.7355L65.2548 41.0456Z" fill="#DC9D1F"/>
<path d="M65.1278 40.3562L6.64844 50.4258L6.76722 51.1156L65.2466 41.046L65.1278 40.3562Z" fill="#DC9D1F"/>
<path d="M65.0145 39.6765L6.53516 49.7461L6.65394 50.4359L65.1333 40.3663L65.0145 39.6765Z" fill="#DC9D1F"/>
<path d="M64.8993 38.9851L6.41992 49.0547L6.53871 49.7445L65.0181 39.6749L64.8993 38.9851Z" fill="#DC9D1F"/>
<path d="M64.7841 38.2956L6.30469 48.3652L6.42347 49.0551L64.9029 38.9855L64.7841 38.2956Z" fill="#DC9D1F"/>
<path d="M64.661 37.615L6.18164 47.6846L6.30043 48.3744L64.7798 38.3048L64.661 37.615Z" fill="#DC9D1F"/>
<path d="M64.536 36.9255L6.05664 46.9951L6.17543 47.685L64.6548 37.6153L64.536 36.9255Z" fill="#DC9D1F"/>
<path d="M64.4188 36.2361L5.93945 46.3057L6.05824 46.9955L64.5376 36.9259L64.4188 36.2361Z" fill="#DC9D1F"/>
<path d="M64.2958 35.5564L5.81641 45.626L5.93519 46.3158L64.4146 36.2462L64.2958 35.5564Z" fill="#DC9D1F"/>
<path d="M64.1903 34.865L5.71094 44.9346L5.82972 45.6244L64.3091 35.5548L64.1903 34.865Z" fill="#DC9D1F"/>
<path d="M64.0653 34.1755L5.58594 44.2451L5.70472 44.935L64.1841 34.8653L64.0653 34.1755Z" fill="#DC9D1F"/>
<path d="M63.952 33.4958L5.47266 43.5654L5.59144 44.2553L64.0708 34.1857L63.952 33.4958Z" fill="#DC9D1F"/>
<path d="M63.827 32.8064L5.34766 42.876L5.46644 43.5658L63.9458 33.4962L63.827 32.8064Z" fill="#DC9D1F"/>
<path d="M63.7118 32.1159L5.23242 42.1855L5.35121 42.8754L63.8306 32.8058L63.7118 32.1159Z" fill="#DC9D1F"/>
<path d="M63.5966 31.4353L5.11719 41.5049L5.23597 42.1947L63.7154 32.1251L63.5966 31.4353Z" fill="#DC9D1F"/>
<path d="M63.4813 30.7448L5.00195 40.8145L5.12074 41.5043L63.6001 31.4347L63.4813 30.7448Z" fill="#DC9D1F"/>
<path d="M63.3563 30.0554L4.87695 40.125L4.99574 40.8148L63.4751 30.7452L63.3563 30.0554Z" fill="#DC9D1F"/>
<path d="M63.2431 29.3757L4.76367 39.4453L4.88246 40.1352L63.3618 30.0655L63.2431 29.3757Z" fill="#DC9D1F"/>
<path d="M63.1181 28.6862L4.63867 38.7559L4.75746 39.4457L63.2368 29.3761L63.1181 28.6862Z" fill="#DC9D1F"/>
<path d="M63.0048 28.0066L4.52539 38.0762L4.64418 38.766L63.1236 28.6964L63.0048 28.0066Z" fill="#DC9D1F"/>
<path d="M62.8876 27.3152L4.4082 37.3848L4.52699 38.0746L63.0064 28.005L62.8876 27.3152Z" fill="#DC9D1F"/>
<path d="M62.7723 26.6257L4.29297 36.6953L4.41175 37.3852L62.8911 27.3155L62.7723 26.6257Z" fill="#DC9D1F"/>
<path d="M4.29 36.7L0 11.78V0H58.18L62.77 26.62L4.29 36.7Z" fill="#DC9D1F"/>
</g>
<path d="M98.8309 88.4304C99.1709 97.5904 106.261 101.6 114.441 101.6C119.197 101.681 123.928 100.877 128.391 99.2304L130.291 108.03C124.674 110.254 118.671 111.342 112.631 111.23C96.2209 111.23 86.6309 101.09 86.6309 85.6004C86.6309 71.6004 95.1009 58.4504 111.361 58.4504C127.791 58.4504 133.141 71.9604 133.141 83.0304C133.17 84.8309 133.019 86.6298 132.691 88.4004L98.8309 88.4304ZM121.061 79.5204C121.121 74.8404 119.061 67.2004 110.521 67.2004C102.651 67.2004 99.3809 74.3504 98.8109 79.5204H121.061ZM126.811 37.6904L114.131 53.0504H105.271L114.271 37.6904H126.811Z" fill="#FF3C13"/>
<path d="M138.221 74.65C138.221 68.81 138.041 64 137.811 59.65H148.721L149.311 67.07H149.611C151.196 64.3774 153.478 62.1616 156.216 60.6554C158.954 59.1492 162.047 58.4081 165.171 58.51C168.182 58.4201 171.148 59.2687 173.656 60.9385C176.164 62.6083 178.091 65.0166 179.171 67.83H179.371C180.969 65.274 183.105 63.0969 185.631 61.45C188.659 59.3985 192.254 58.3492 195.911 58.45C204.261 58.45 212.781 64.17 212.781 80.38V110.14H200.261V82.23C200.261 73.8 197.351 68.86 191.261 68.86C186.891 68.86 183.681 71.94 182.371 75.59C181.939 76.9722 181.72 78.412 181.721 79.86V110.19H169.241V80.94C169.241 73.82 166.401 68.84 160.521 68.84C155.731 68.84 152.521 72.6 151.321 76.06C150.881 77.4261 150.668 78.855 150.691 80.29V110.17H138.221V74.65Z" fill="#FF3C13"/>
<path d="M249.52 110.17L248.64 104.54H248.33C245.27 108.54 239.98 111.31 233.44 111.31C223.18 111.31 217.5 103.99 217.5 96.3104C217.5 83.5504 228.86 77.0904 247.5 77.1704V76.3304C247.5 73.0104 246.19 67.4804 237.24 67.5204C232.454 67.5253 227.756 68.806 223.63 71.2304L221.1 62.9304C224.92 60.6104 231.46 58.4504 239.42 58.4504C255.63 58.4504 260.26 68.6704 260.26 79.7604V97.9604C260.194 102.035 260.458 106.108 261.05 110.14L249.52 110.17ZM247.82 85.4104C238.82 85.2904 230.18 87.1904 230.18 94.8904C230.18 99.8904 233.42 102.17 237.46 102.17C239.652 102.205 241.798 101.547 243.594 100.29C245.389 99.033 246.742 97.2414 247.46 95.1704C247.709 94.2653 247.827 93.3291 247.81 92.3904L247.82 85.4104ZM255.63 37.6904L242.95 53.0504H234.09L243.09 37.6904H255.63Z" fill="#FF3C13"/>
<path d="M275.63 59.6204L284.74 86.7204C285.74 89.8504 286.85 93.7204 287.59 96.5204H287.89C288.68 93.6804 289.62 89.8804 290.57 86.6104L298.49 59.6104H312.12L299.45 94.1104C292.52 112.97 287.83 121.36 281.87 126.6C278.113 129.993 273.463 132.238 268.47 133.07L265.58 122.31C268.23 121.591 270.732 120.41 272.97 118.82C275.927 116.746 278.331 113.979 279.97 110.76C280.426 110.091 280.705 109.317 280.78 108.51C280.734 107.642 280.506 106.794 280.11 106.02L261.49 59.6204H275.63Z" fill="#FF3C13"/>
<path d="M313.9 110.17C314.13 106.77 314.31 101.17 314.31 95.9902V36.4502H327.09V66.5802H327.3C330.4 61.6302 335.92 58.4802 343.44 58.4802C355.77 58.4802 364.6 68.6902 364.51 84.1002C364.51 102.27 353 111.31 341.51 111.31C334.99 111.31 329.23 108.82 325.58 102.56H325.35L324.78 110.17H313.9ZM327.09 89.2302C327.086 90.239 327.193 91.2451 327.41 92.2302C328.006 94.7796 329.443 97.0541 331.489 98.6869C333.536 100.32 336.072 101.216 338.69 101.23C346.69 101.23 351.55 94.8602 351.55 84.6402C351.55 75.7502 347.26 68.4302 338.83 68.4302C336.169 68.4938 333.606 69.4488 331.551 71.1423C329.497 72.8358 328.071 75.1697 327.5 77.7702C327.238 78.8577 327.1 79.9715 327.09 81.0902V89.2302Z" fill="#FF3C13"/>
<path d="M398.309 110.17L397.439 104.54H397.129C394.059 108.54 388.779 111.31 382.229 111.31C371.979 111.31 366.289 103.99 366.289 96.3102C366.289 83.5502 377.659 77.0902 396.289 77.1702V76.3302C396.289 73.0102 394.969 67.4802 386.019 67.5202C381.237 67.5269 376.542 68.8074 372.419 71.2302L369.889 62.9302C373.709 60.6102 380.259 58.4502 388.209 58.4502C404.429 58.4502 409.059 68.6702 409.059 79.7602V97.9602C408.995 102.034 409.256 106.107 409.839 110.14L398.309 110.17ZM396.629 85.4102C387.629 85.2902 378.979 87.1902 378.979 94.8902C378.979 99.8902 382.229 102.17 386.269 102.17C388.461 102.208 390.609 101.551 392.405 100.294C394.202 99.0362 395.554 97.2429 396.269 95.1702C396.526 94.2665 396.647 93.3296 396.629 92.3902V85.4102Z" fill="#FF3C13"/>
<path d="M424.379 59.6204L433.489 86.7204C434.489 89.8504 435.589 93.7204 436.339 96.5204H436.629C437.419 93.6804 438.369 89.8804 439.309 86.6104L447.229 59.6104H460.859L448.199 94.1104C441.259 112.97 436.569 121.36 430.619 126.6C426.859 129.993 422.205 132.238 417.209 133.07L414.329 122.31C416.976 121.593 419.475 120.411 421.709 118.82C424.663 116.743 427.066 113.976 428.709 110.76C429.158 110.088 429.433 109.315 429.509 108.51C429.463 107.642 429.235 106.794 428.839 106.02L410.289 59.6204H424.379Z" fill="#FF3C13"/>
<path d="M461.26 98.4103C465.198 100.668 469.625 101.934 474.16 102.1C479.78 102.1 482.29 99.7403 482.29 96.4303C482.29 93.1203 480.21 91.2703 473.99 89.0603C464.1 85.6703 459.99 80.2803 459.99 74.3003C459.99 65.4103 467.38 58.4803 479.17 58.4803C483.815 58.397 488.413 59.4255 492.58 61.4803L490.04 70.4803C486.77 68.6476 483.098 67.6482 479.35 67.5703C474.81 67.5703 472.27 69.8203 472.27 72.9303C472.27 76.0403 474.71 77.6803 481.1 80.0103C490.3 83.2603 494.54 87.9503 494.59 95.4003C494.59 104.62 487.41 111.27 474.06 111.27C468.715 111.368 463.427 110.152 458.66 107.73L461.26 98.4103Z" fill="#FF3C13"/>
<path d="M548.011 84.3996C548.011 102.98 535.011 111.31 522.011 111.31C507.751 111.31 496.711 101.47 496.711 85.3096C496.711 68.7296 507.631 58.5196 522.871 58.5196C537.941 58.4796 548.011 69.0696 548.011 84.3996ZM509.881 84.9496C509.881 94.6696 514.741 102.03 522.451 102.03C529.781 102.03 534.871 94.9496 534.871 84.7796C534.871 76.7796 531.351 67.7796 522.531 67.7796C513.711 67.7796 509.881 76.5196 509.881 84.9496Z" fill="#FF3C13"/>
<path d="M549.51 106.09C549.473 105.47 549.564 104.849 549.779 104.266C549.993 103.683 550.326 103.151 550.756 102.703C551.186 102.255 551.705 101.9 552.278 101.663C552.852 101.425 553.469 101.308 554.09 101.32C556.79 101.32 558.61 103.26 558.64 106.09C558.669 106.708 558.572 107.325 558.356 107.904C558.14 108.483 557.808 109.012 557.381 109.459C556.955 109.906 556.441 110.262 555.873 110.505C555.305 110.749 554.693 110.874 554.075 110.874C553.457 110.874 552.845 110.749 552.277 110.505C551.709 110.262 551.196 109.906 550.769 109.459C550.342 109.012 550.011 108.483 549.794 107.904C549.578 107.325 549.481 106.708 549.51 106.09Z" fill="#FF3C13"/>
<path d="M566.259 80.96L570.989 95.79C571.829 98.37 572.449 100.72 572.989 103.09H573.169C573.709 100.68 574.359 98.38 575.169 95.79L579.799 80.96H587.559L576.409 110.17H569.139L558.289 80.96H566.259Z" fill="#FF3C13"/>
<path d="M589.08 89.6501C589.08 86.2701 588.97 83.4901 588.84 80.9601H595.3L595.66 85.3501H595.83C596.805 83.7679 598.178 82.4691 599.811 81.583C601.445 80.6969 603.282 80.2545 605.14 80.3001C610.23 80.3001 615.52 83.5801 615.52 92.8201V110.17H608.13V93.6901C608.13 89.5001 606.59 86.3101 602.56 86.3101C601.267 86.3333 600.015 86.7646 598.982 87.5422C597.95 88.3199 597.189 89.4042 596.81 90.6401C596.567 91.3957 596.452 92.1866 596.47 92.9801V110.17H589.08V89.6501Z" fill="#FF3C13"/>
<path d="M526.41 37.8098L535.34 52.6598H528.34L523.04 42.8998H522.84L517.63 52.6598H510.93L519.63 37.8098H526.41ZM548 29.2998L537.72 43.0098H532.43L539.49 29.2998H548Z" fill="#FF3C13"/>
</svg>
