<svg width="32" height="32" viewBox="0 0 32 32" fill="none" xmlns="http://www.w3.org/2000/svg">
<path d="M20 6.6665V9.33317M20 14.6665V17.3332M20 22.6665V25.3332M6.66667 6.6665C5.19391 6.6665 4 7.86041 4 9.33317V13.3332C5.47276 13.3332 6.66667 14.5271 6.66667 15.9998C6.66667 17.4726 5.47276 18.6665 4 18.6665V22.6665C4 24.1393 5.19391 25.3332 6.66667 25.3332H25.3333C26.8061 25.3332 28 24.1393 28 22.6665V18.6665C26.5272 18.6665 25.3333 17.4726 25.3333 15.9998C25.3333 14.5271 26.5272 13.3332 28 13.3332V9.33317C28 7.86041 26.8061 6.6665 25.3333 6.6665H6.66667Z" stroke="#020035" stroke-width="2" stroke-linecap="round" stroke-linejoin="round"/>
</svg>
