<svg width="32" height="32" viewBox="0 0 32 32" fill="none" xmlns="http://www.w3.org/2000/svg">
<path d="M22.6654 5.51935V2.66602H18.6654V5.33268H13.332V2.66602H9.33203V5.51935C7.0387 6.11935 5.33203 8.18602 5.33203 10.666V26.666C5.33203 28.1327 6.53203 29.3327 7.9987 29.3327H23.9987C25.4654 29.3327 26.6654 28.1327 26.6654 26.666V10.666C26.6654 8.18602 24.9587 6.11935 22.6654 5.51935ZM23.9987 26.666H7.9987V10.666C7.9987 9.19935 9.1987 7.99935 10.6654 7.99935H21.332C22.7987 7.99935 23.9987 9.19935 23.9987 10.666V26.666ZM21.9987 15.9993V21.3327H19.332V18.666H9.9987V15.9993H21.9987Z" fill="#0E0F52"/>
</svg>
