<svg width="20" height="20" viewBox="0 0 20 20" fill="none" xmlns="http://www.w3.org/2000/svg">
<rect width="20" height="20" rx="4" fill="#02066F"/>
<path d="M14.0007 10.6673H10.6673V14.0007C10.6673 14.3673 10.3673 14.6673 10.0007 14.6673C9.63398 14.6673 9.33398 14.3673 9.33398 14.0007V10.6673H6.00065C5.63398 10.6673 5.33398 10.3673 5.33398 10.0007C5.33398 9.63398 5.63398 9.33398 6.00065 9.33398H9.33398V6.00065C9.33398 5.63398 9.63398 5.33398 10.0007 5.33398C10.3673 5.33398 10.6673 5.63398 10.6673 6.00065V9.33398H14.0007C14.3673 9.33398 14.6673 9.63398 14.6673 10.0007C14.6673 10.3673 14.3673 10.6673 14.0007 10.6673Z" fill="white"/>
</svg>
