<svg width="24" height="24" viewBox="0 0 24 24" fill="none" xmlns="http://www.w3.org/2000/svg">
<path d="M17.6143 15.4939C19.0668 13.5144 19.7173 11.0601 19.4358 8.62217C19.1543 6.1842 17.9615 3.9423 16.096 2.34498C14.2305 0.747668 11.83 -0.0872645 9.3746 0.00722709C6.91923 0.101719 4.59012 1.11867 2.85325 2.85461C1.11637 4.59056 0.0998225 6.91749 0.0069698 9.36986C-0.0858829 11.8222 0.751811 14.2192 2.35246 16.0812C3.95311 17.9432 6.19866 19.1329 8.63988 19.4123C11.0811 19.6918 13.5379 19.0403 15.5188 17.5882H15.5173C15.5623 17.6482 15.6103 17.7051 15.6643 17.7605L21.4393 23.5283C21.7206 23.8094 22.1022 23.9674 22.5001 23.9676C22.898 23.9677 23.2796 23.81 23.5611 23.5291C23.8426 23.2482 24.0008 22.8671 24.0009 22.4697C24.001 22.0723 23.8431 21.6911 23.5618 21.41L17.7868 15.6422C17.7332 15.588 17.6756 15.5379 17.6143 15.4924V15.4939ZM18.0013 9.73505C18.0013 10.8171 17.788 11.8886 17.3734 12.8883C16.9588 13.8879 16.3511 14.7963 15.585 15.5614C14.8189 16.3265 13.9094 16.9335 12.9085 17.3475C11.9075 17.7616 10.8348 17.9748 9.75135 17.9748C8.66794 17.9748 7.59514 17.7616 6.59421 17.3475C5.59327 16.9335 4.6838 16.3265 3.91772 15.5614C3.15163 14.7963 2.54394 13.8879 2.12934 12.8883C1.71474 11.8886 1.50135 10.8171 1.50135 9.73505C1.50135 7.54975 2.37054 5.45395 3.91772 3.9087C5.46489 2.36346 7.56331 1.49535 9.75135 1.49535C11.9394 1.49535 14.0378 2.36346 15.585 3.9087C17.1322 5.45395 18.0013 7.54975 18.0013 9.73505V9.73505Z" fill="#00296B"/>
</svg>
