<svg width="32" height="32" viewBox="0 0 32 32" fill="none" xmlns="http://www.w3.org/2000/svg">
<path d="M22.6673 5.51984V2.6665H18.6673V5.33317H13.334V2.6665H9.33398V5.51984C7.04065 6.11984 5.33398 8.1865 5.33398 10.6665V26.6665C5.33398 28.1332 6.53398 29.3332 8.00065 29.3332H24.0006C25.4673 29.3332 26.6673 28.1332 26.6673 26.6665V10.6665C26.6673 8.1865 24.9606 6.11984 22.6673 5.51984ZM24.0006 26.6665H8.00065V10.6665C8.00065 9.19984 9.20065 7.99984 10.6673 7.99984H21.334C22.8007 7.99984 24.0006 9.19984 24.0006 10.6665V26.6665ZM22.0007 15.9998V21.3332H19.334V18.6665H10.0007V15.9998H22.0007Z" fill="#020035"/>
</svg>
