<svg width="24" height="24" viewBox="0 0 24 24" fill="none" xmlns="http://www.w3.org/2000/svg">
<g clip-path="url(#clip0_4137_9128)">
<path fill-rule="evenodd" clip-rule="evenodd" d="M12.9286 1.4965L15.7571 1.20605C15.9629 2.26558 16.5286 3.89264 17.5214 5.2189C18.4929 6.51848 19.7814 7.42389 21.5 7.42389V10.3876C18.9957 10.3876 17.1143 9.18136 15.7857 7.67728V17.7968C15.7857 19.2622 15.3668 20.6947 14.5819 21.9132C13.7971 23.1316 12.6815 24.0813 11.3763 24.6421C10.0711 25.2028 8.63494 25.3496 7.24936 25.0637C5.86378 24.7778 4.59104 24.0721 3.5921 23.0359C2.59315 21.9997 1.91286 20.6795 1.63725 19.2423C1.36164 17.805 1.50309 16.3153 2.04372 14.9614C2.58435 13.6076 3.49986 12.4504 4.6745 11.6363C5.84914 10.8221 7.23014 10.3876 8.64286 10.3876V13.3513C7.79523 13.3513 6.96663 13.612 6.26184 14.1005C5.55706 14.589 5.00775 15.2833 4.68338 16.0956C4.359 16.9079 4.27413 17.8017 4.43949 18.6641C4.60486 19.5264 5.01303 20.3186 5.6124 20.9403C6.21177 21.562 6.97541 21.9854 7.80676 22.1569C8.63811 22.3285 9.49982 22.2404 10.2829 21.904C11.066 21.5675 11.7354 20.9977 12.2063 20.2666C12.6772 19.5356 12.9286 18.6761 12.9286 17.7968V1.4965Z" fill="#00296B"/>
</g>
<defs>
<clipPath id="clip0_4137_9128">
<rect width="24" height="24" fill="white"/>
</clipPath>
</defs>
</svg>
