<svg width="32" height="32" viewBox="0 0 32 32" fill="none" xmlns="http://www.w3.org/2000/svg">
<path d="M20 6.66699V9.33366M20 14.667V17.3337M20 22.667V25.3337M6.66667 6.66699C5.19391 6.66699 4 7.8609 4 9.33366V13.3337C5.47276 13.3337 6.66667 14.5276 6.66667 16.0003C6.66667 17.4731 5.47276 18.667 4 18.667V22.667C4 24.1398 5.19391 25.3337 6.66667 25.3337H25.3333C26.8061 25.3337 28 24.1398 28 22.667V18.667C26.5272 18.667 25.3333 17.4731 25.3333 16.0003C25.3333 14.5276 26.5272 13.3337 28 13.3337V9.33366C28 7.8609 26.8061 6.66699 25.3333 6.66699H6.66667Z" stroke="#0E0F52" stroke-width="2" stroke-linecap="round" stroke-linejoin="round"/>
</svg>
