<svg width="24" height="24" viewBox="0 0 24 24" fill="none" xmlns="http://www.w3.org/2000/svg">
<g clip-path="url(#clip0_4186_6622)">
<path d="M15.75 9.5625H8.25C7.55964 9.5625 7 10.1081 7 10.7812V16.4688C7 17.1419 7.55964 17.6875 8.25 17.6875H8.66667V18.0938C8.66667 18.3182 8.85312 18.5 9.08333 18.5H9.91667C10.1469 18.5 10.3333 18.3182 10.3333 18.0938V17.6875H13.6667V18.0938C13.6667 18.3182 13.8531 18.5 14.0833 18.5H14.9167C15.1469 18.5 15.3333 18.3182 15.3333 18.0938V17.6875H15.75C16.4404 17.6875 17 17.1419 17 16.4688V10.7812C17 10.1081 16.4404 9.5625 15.75 9.5625ZM15.3333 15.0469C15.3333 15.1591 15.2401 15.25 15.125 15.25H8.875C8.7599 15.25 8.66667 15.1591 8.66667 15.0469V14.6406C8.66667 14.5284 8.7599 14.4375 8.875 14.4375H15.125C15.2401 14.4375 15.3333 14.5284 15.3333 14.6406V15.0469ZM15.3333 12.6094C15.3333 12.7216 15.2401 12.8125 15.125 12.8125H8.875C8.7599 12.8125 8.66667 12.7216 8.66667 12.6094V12.2031C8.66667 12.0909 8.7599 12 8.875 12H15.125C15.2401 12 15.3333 12.0909 15.3333 12.2031V12.6094ZM10.75 6.71875H13.25V8.75H14.5V6.71875C14.5 6.04564 13.9404 5.5 13.25 5.5H10.75C10.0596 5.5 9.5 6.04564 9.5 6.71875V8.75H10.75V6.71875Z" fill="#0E0F52"/>
</g>
<defs>
<clipPath id="clip0_4186_6622">
<rect width="10" height="13" fill="white" transform="translate(7 5.5)"/>
</clipPath>
</defs>
</svg>
