<svg width="15" height="15" viewBox="0 0 15 15" fill="none" xmlns="http://www.w3.org/2000/svg">
<g clip-path="url(#clip0_4186_6605)">
<path d="M1.04953 7.34668L0.0513568 9.65042C0.00329371 9.76553 -0.00528923 9.89336 0.0271406 10.0138C0.0595704 10.1343 0.131196 10.2406 0.230556 10.316C0.339366 10.3466 0.454368 10.3466 0.563177 10.316C0.717354 10.3098 0.863649 10.2458 0.972821 10.1368L3.53255 7.57705L1.04953 7.34668Z" fill="#EBA00A"/>
<path d="M1.04953 7.34622L0.0513568 5.06806C0.00329371 4.95295 -0.00528923 4.82516 0.0271406 4.7047C0.0595704 4.58425 0.131196 4.47797 0.230556 4.40255C0.326388 4.32793 0.442043 4.28338 0.563177 4.27455C0.714354 4.27125 0.861091 4.32624 0.972821 4.42813L3.53255 6.98786L1.04953 7.34622Z" fill="#EBA00A"/>
<path d="M5.47964 8.24268L3.30378 14.0532C3.27426 14.1277 3.26358 14.2083 3.27269 14.2879C3.2818 14.3674 3.31053 14.4435 3.35612 14.5094C3.4017 14.5752 3.4628 14.6287 3.53407 14.6653C3.60533 14.7018 3.68444 14.7202 3.76451 14.7188H4.17416C4.29337 14.7188 4.41093 14.691 4.51756 14.6377C4.62419 14.5844 4.71694 14.507 4.78846 14.4116L9.90792 8.06348L5.47964 8.24268Z" fill="#EBA00A"/>
<path d="M5.47836 6.47563L3.3025 0.639459C3.27141 0.566513 3.25969 0.486773 3.26844 0.40796C3.27719 0.329148 3.30616 0.253937 3.35249 0.189585C3.39883 0.125234 3.46098 0.0739112 3.53294 0.0406168C3.60491 0.00732244 3.68419 -0.00682241 3.76323 -0.000472559H4.17288C4.29209 -0.000472559 4.40965 0.0272587 4.51628 0.0805735C4.62291 0.133888 4.71566 0.21131 4.78719 0.306682L9.90664 6.65479L5.47836 6.47563Z" fill="#EBA00A"/>
<path d="M13.8988 6.57806L14.7435 6.96204C14.8199 6.99646 14.8847 7.05219 14.9302 7.12257C14.9757 7.19295 14.9999 7.27499 14.9999 7.3588C14.9999 7.4426 14.9757 7.5246 14.9302 7.59498C14.8847 7.66536 14.8199 7.72113 14.7435 7.75555L13.8988 8.13949C13.5633 8.30208 13.1965 8.38946 12.8237 8.39548H1.02344V6.34769H12.8237C13.1946 6.34571 13.5613 6.4243 13.8988 6.57806Z" fill="#EBA00A"/>
</g>
<defs>
<clipPath id="clip0_4186_6605">
<rect width="15" height="14.7184" fill="white"/>
</clipPath>
</defs>
</svg>
