<svg width="52" height="52" viewBox="0 0 52 52" fill="none" xmlns="http://www.w3.org/2000/svg">
<path d="M0 25.22C0 10.7283 11.3523 0 26 0C40.6478 0 52 10.7283 52 25.22C52 39.7118 40.6478 50.44 26 50.44C23.3675 50.44 20.8455 50.0923 18.473 49.4422C18.013 49.3142 17.5229 49.3487 17.0853 49.5397L11.9242 51.8213C11.6125 51.9587 11.2718 52.0176 10.9321 51.9926C10.5923 51.9676 10.2639 51.8595 9.97569 51.6778C9.68749 51.4962 9.44831 51.2465 9.27918 50.9508C9.11006 50.655 9.01616 50.3223 9.00575 49.9818L8.86275 45.357C8.85287 45.0755 8.78583 44.799 8.66571 44.5442C8.54558 44.2894 8.37489 44.0617 8.164 43.875C3.107 39.351 0 32.799 0 25.22ZM18.0245 20.4783L10.387 32.5942C9.65575 33.7578 11.0825 35.0675 12.1777 34.2388L20.384 28.0118C20.6539 27.8067 20.9832 27.6952 21.3222 27.6941C21.6611 27.6929 21.9912 27.8021 22.2625 28.0052L28.3368 32.5617C28.7677 32.8849 29.261 33.1154 29.7854 33.2384C30.3099 33.3615 30.8542 33.3746 31.3839 33.2769C31.9137 33.1792 32.4175 32.9728 32.8635 32.6707C33.3096 32.3686 33.6882 31.9774 33.9755 31.5218L41.613 19.4058C42.3475 18.2423 40.9175 16.9325 39.8223 17.7612L31.616 23.9883C31.3461 24.1933 31.0168 24.3048 30.6778 24.3059C30.3389 24.3071 30.0088 24.1979 29.7375 23.9947L23.6632 19.435C23.2323 19.1118 22.739 18.8814 22.2146 18.7583C21.6901 18.6352 21.1458 18.6221 20.6161 18.7198C20.0863 18.8175 19.5825 19.0239 19.1365 19.326C18.6904 19.6281 18.3118 20.0193 18.0245 20.475V20.4783Z" fill="#00296B"/>
</svg>
