<svg width="27" height="32" viewBox="0 0 27 32" fill="none" xmlns="http://www.w3.org/2000/svg">
<path fill-rule="evenodd" clip-rule="evenodd" d="M15.4286 0.387256L19.2471 0C19.5249 1.41269 20.2886 3.58212 21.6289 5.35046C22.9404 7.08323 24.6799 8.29044 27 8.29044V12.242C23.6192 12.242 21.0793 10.6337 19.2857 8.6283V22.121C19.2857 24.0749 18.7202 25.9849 17.6606 27.6095C16.601 29.2341 15.095 30.5003 13.333 31.248C11.571 31.9957 9.63216 32.1914 7.76163 31.8102C5.8911 31.429 4.17291 30.4881 2.82433 29.1065C1.47575 27.7249 0.557361 25.9646 0.185289 24.0483C-0.186783 22.132 0.00417805 20.1456 0.734023 18.3405C1.46387 16.5353 2.69982 14.9925 4.28558 13.9069C5.87134 12.8214 7.73568 12.242 9.64286 12.242V16.1936C8.49855 16.1936 7.37995 16.5413 6.42849 17.1926C5.47703 17.8439 4.73546 18.7696 4.29756 19.8527C3.85965 20.9358 3.74507 22.1276 3.96832 23.2774C4.19156 24.4272 4.7426 25.4834 5.55174 26.3123C6.36089 27.1413 7.39181 27.7058 8.51412 27.9345C9.63644 28.1632 10.7998 28.0458 11.857 27.5972C12.9142 27.1486 13.8178 26.3889 14.4535 25.4141C15.0892 24.4393 15.4286 23.2933 15.4286 22.121V0.387256Z" fill="#00296B"/>
</svg>
