<svg width="52" height="52" viewBox="0 0 52 52" fill="none" xmlns="http://www.w3.org/2000/svg">
<path d="M44.2033 7.55966C41.8193 5.15361 38.9803 3.24608 35.8517 1.94823C32.7232 0.650375 29.3676 -0.0118439 25.9805 0.000160324C11.7877 0.000160324 0.221 11.5637 0.208 25.7597C0.208 30.3064 1.3975 34.7297 3.64325 38.6459L0 52.0002L13.663 48.4187C17.4428 50.4756 21.6773 51.5538 25.9805 51.5549H25.9935C40.1895 51.5549 51.753 39.9914 51.766 25.7824C51.7692 22.3961 51.1024 19.0425 49.8039 15.915C48.5054 12.7875 46.6008 9.94786 44.2 7.55966H44.2033ZM25.9805 47.1934C22.1422 47.1947 18.3745 46.1618 15.0735 44.2034L14.2935 43.7354L6.188 45.8609L8.3525 37.9537L7.8455 37.1379C5.69987 33.7265 4.5651 29.7767 4.57275 25.7467C4.57275 13.9622 14.183 4.34866 25.9935 4.34866C28.8072 4.34361 31.594 4.89555 34.1933 5.97266C36.7927 7.04976 39.1531 8.63073 41.1385 10.6244C43.1309 12.6103 44.7103 14.971 45.7858 17.5704C46.8612 20.1698 47.4114 22.9564 47.4045 25.7694C47.3915 37.5962 37.7812 47.1934 25.9805 47.1934ZM37.7293 31.1579C37.089 30.8362 33.9268 29.2794 33.332 29.0584C32.7405 28.8472 32.3083 28.7367 31.8857 29.3802C31.4535 30.0204 30.2185 31.4797 29.848 31.8989C29.4775 32.3312 29.094 32.3799 28.4505 32.0614C27.8102 31.7364 25.7335 31.0604 23.2765 28.8602C21.359 27.1539 20.0753 25.0414 19.6917 24.4012C19.3213 23.7577 19.656 23.4132 19.9777 23.0914C20.2605 22.8054 20.618 22.3374 20.9397 21.9669C21.2647 21.5964 21.372 21.3234 21.5833 20.8944C21.7945 20.4589 21.6938 20.0884 21.5345 19.7667C21.372 19.4449 20.0882 16.2697 19.5455 14.9892C19.0255 13.7249 18.4957 13.9004 18.0992 13.8842C17.7287 13.8614 17.2965 13.8614 16.8643 13.8614C16.5378 13.8695 16.2166 13.945 15.9208 14.0832C15.6249 14.2213 15.3608 14.4191 15.145 14.6642C14.5535 15.3077 12.8993 16.8644 12.8993 20.0397C12.8993 23.2149 15.2067 26.2667 15.5317 26.6989C15.8502 27.1312 20.0622 33.6279 26.5265 36.4229C28.054 37.0892 29.2565 37.4824 30.1958 37.7814C31.7395 38.2754 33.1338 38.2007 34.2453 38.0414C35.4802 37.8529 38.051 36.4814 38.5938 34.9767C39.1268 33.4687 39.1268 32.1817 38.9643 31.9119C38.805 31.6389 38.3727 31.4797 37.7293 31.1579Z" fill="#00296B"/>
</svg>
