<svg width="32" height="24" viewBox="0 0 32 24" fill="none" xmlns="http://www.w3.org/2000/svg">
<path d="M0 20V4C0 2.93913 0.421427 1.92172 1.17157 1.17157C1.92172 0.421427 2.93913 0 4 0H28C29.0609 0 30.0783 0.421427 30.8284 1.17157C31.5786 1.92172 32 2.93913 32 4V20C32 21.0609 31.5786 22.0783 30.8284 22.8284C30.0783 23.5786 29.0609 24 28 24H4C2.93913 24 1.92172 23.5786 1.17157 22.8284C0.421427 22.0783 0 21.0609 0 20ZM13.58 6.186C13.4305 6.07954 13.2545 6.01629 13.0714 6.00317C12.8884 5.99006 12.7052 6.02759 12.542 6.11166C12.3788 6.19572 12.242 6.32308 12.1463 6.47977C12.0507 6.63646 12.0001 6.81644 12 7V17C12.0001 17.1836 12.0507 17.3635 12.1463 17.5202C12.242 17.6769 12.3788 17.8043 12.542 17.8883C12.7052 17.9724 12.8884 18.0099 13.0714 17.9968C13.2545 17.9837 13.4305 17.9205 13.58 17.814L20.58 12.814C20.7096 12.7215 20.8153 12.5994 20.8882 12.4578C20.9611 12.3162 20.9991 12.1593 20.9991 12C20.9991 11.8407 20.9611 11.6838 20.8882 11.5422C20.8153 11.4006 20.7096 11.2785 20.58 11.186L13.58 6.186Z" fill="#00296B"/>
</svg>
