<svg width="40" height="40" viewBox="0 0 40 40" fill="none" xmlns="http://www.w3.org/2000/svg">
<path d="M37.0102 36.7556C38.6863 36.4 40 34.9333 40 33.1111L40 14.1778C40 12.4 38.7316 10.8889 37.0555 10.5333L37.0555 2.97778C37.0102 1.33333 35.6965 -1.84559e-07 34.0204 -2.5644e-07L6.07021 -1.4551e-06C4.39411 -1.52698e-06 3.08041 1.33333 3.08041 2.97778L3.08041 10.4889C1.3137 10.8 -5.48496e-07 12.3111 -6.29682e-07 14.1333L-1.4752e-06 33.1111C-1.55044e-06 34.8 1.1325 36.2222 2.62741 36.6667C2.8086 38.5333 4.39411 40 6.34202 40L33.3409 40C35.1982 40 36.7837 38.5778 37.0102 36.7556ZM38.6863 14.1778L38.6863 33.1556C38.6863 34.2667 37.9615 35.1556 36.9649 35.4667C36.6025 34 35.3794 32.8889 33.8845 32.6667L33.8845 14.1778C33.8845 12.8444 34.9717 11.7778 36.2854 11.7778C37.5991 11.7778 38.6863 12.8444 38.6863 14.1778ZM4.39411 10.5333L4.39411 2.97778C4.39411 2.04444 5.16421 1.28889 6.07021 1.28889L34.0204 1.28889C34.9717 1.28889 35.6965 2.04444 35.6965 2.97778L35.6965 10.4889C33.8845 10.7556 32.5255 12.3111 32.5255 14.1333L32.5255 32.5333L7.38392 32.5333L7.38392 14.1778C7.42922 12.3556 6.11552 10.8444 4.39411 10.5333ZM1.2684 33.1111L1.2684 14.1778C1.2684 12.8444 2.35561 11.7778 3.66931 11.7778C4.98301 11.7778 6.07021 12.8444 6.07021 14.1778L6.07021 32.6222C4.43941 32.7111 3.12571 33.8667 2.71801 35.3778C1.90261 34.9778 1.2684 34.1333 1.2684 33.1111ZM6.34202 38.7111C5.02831 38.7111 3.94111 37.6444 3.94111 36.3111C3.94111 34.9778 5.02831 33.9111 6.34202 33.9111L33.3409 33.9111C34.6546 33.9111 35.7418 34.9778 35.7418 36.3111C35.7418 37.6444 34.6546 38.7111 33.3409 38.7111L6.34202 38.7111Z" fill="#02066F"/>
</svg>