<svg width="40" height="40" viewBox="0 0 40 40" fill="none" xmlns="http://www.w3.org/2000/svg">
<path d="M37.0102 36.7556C38.6863 36.4 40 34.9333 40 33.1111L40 14.1778C40 12.4 38.7316 10.8889 37.0555 10.5333L37.0555 2.97778C37.0102 1.33333 35.6965 -1.84559e-07 34.0204 -2.5644e-07L6.07021 -1.4551e-06C4.3941 -1.52698e-06 3.08041 1.33333 3.08041 2.97778L3.08041 10.4889C1.3137 10.8 -5.48496e-07 12.3111 -6.29682e-07 14.1333L-1.4752e-06 33.1111C-1.55044e-06 34.8 1.13249 36.2222 2.6274 36.6667C2.8086 38.5333 4.39411 40 6.34201 40L33.3409 40C35.1982 40 36.7837 38.5778 37.0102 36.7556Z" fill="#ADADAD"/>
</svg>